<svg xmlns="http://www.w3.org/2000/svg" xmlns:xlink="http://www.w3.org/1999/xlink" width="2000" zoomAndPan="magnify" viewBox="0 0 1500 1499.999933" height="2000" preserveAspectRatio="xMidYMid meet" version="1.0"><defs><g/><clipPath id="031ef2fc85"><path d="M 540 395.972656 L 1050 395.972656 L 1050 896.132812 L 540 896.132812 Z M 540 395.972656 " clip-rule="nonzero"/></clipPath><clipPath id="2518fb90cd"><rect x="0" width="1164" y="0" height="145"/></clipPath></defs><rect x="-150" width="1800" fill="#ffffff" y="-149.999993" height="1799.99992" fill-opacity="1"/><rect x="-150" width="1800" fill="#ffffff" y="-149.999993" height="1799.99992" fill-opacity="1"/><path fill="#5e17eb" d="M 575.878906 678.433594 L 488.972656 678.433594 C 479.976562 678.433594 472.691406 685.640625 472.691406 694.636719 C 472.691406 703.625 479.976562 710.835938 488.972656 710.835938 L 575.878906 710.835938 C 584.875 710.835938 592.164062 703.625 592.164062 694.636719 C 592.164062 685.640625 584.875 678.433594 575.878906 678.433594 " fill-opacity="1" fill-rule="nonzero"/><path fill="#5e17eb" d="M 616.480469 606.433594 L 470.351562 606.433594 C 461.359375 606.433594 454.070312 613.640625 454.070312 622.636719 C 454.070312 631.625 461.359375 638.835938 470.351562 638.835938 L 616.480469 638.835938 C 625.476562 638.835938 632.765625 631.625 632.765625 622.636719 C 632.765625 613.640625 625.476562 606.433594 616.480469 606.433594 " fill-opacity="1" fill-rule="nonzero"/><path fill="#5e17eb" d="M 466.28125 566.835938 L 575.878906 566.835938 C 584.875 566.835938 592.164062 559.027344 592.164062 550.035156 C 592.164062 541.039062 584.875 533.234375 575.878906 533.234375 L 466.28125 533.234375 C 457.289062 533.234375 450 541.039062 450 550.035156 C 450 559.027344 457.289062 566.835938 466.28125 566.835938 " fill-opacity="1" fill-rule="nonzero"/><path fill="#5e17eb" d="M 879.015625 854.878906 C 887.574219 854.878906 894.515625 847.933594 894.515625 839.371094 C 894.515625 830.808594 887.574219 823.871094 879.015625 823.871094 C 870.449219 823.871094 863.507812 830.808594 863.507812 839.371094 C 863.507812 847.933594 870.449219 854.878906 879.015625 854.878906 " fill-opacity="1" fill-rule="nonzero"/><path fill="#5e17eb" d="M 676.453125 839.371094 C 676.453125 847.933594 683.394531 854.878906 691.960938 854.878906 C 700.519531 854.878906 707.460938 847.933594 707.460938 839.371094 C 707.460938 830.808594 700.519531 823.871094 691.960938 823.871094 C 683.394531 823.871094 676.453125 830.808594 676.453125 839.371094 " fill-opacity="1" fill-rule="nonzero"/><g clip-path="url(#031ef2fc85)"><path fill="#5e17eb" d="M 721.621094 839.371094 C 721.621094 855.730469 708.3125 869.039062 691.953125 869.039062 C 675.601562 869.039062 662.292969 855.730469 662.292969 839.371094 C 662.292969 823.011719 675.601562 809.703125 691.953125 809.703125 C 708.3125 809.703125 721.621094 823.011719 721.621094 839.371094 Z M 879.015625 809.703125 C 895.375 809.703125 908.679688 823.011719 908.679688 839.371094 C 908.679688 855.730469 895.375 869.039062 879.015625 869.039062 C 862.65625 869.039062 849.347656 855.730469 849.347656 839.371094 C 849.347656 823.011719 862.65625 809.703125 879.015625 809.703125 Z M 1009.671875 504.433594 L 671.722656 504.433594 L 671.675781 503.910156 L 662.984375 452.074219 C 657.96875 422.199219 633.335938 400.113281 603.085938 398.457031 L 558.695312 395.996094 C 549.394531 395.46875 541.386719 402.617188 540.871094 411.945312 C 540.359375 421.277344 547.507812 429.246094 556.84375 429.757812 L 601.234375 432.191406 C 615.566406 432.972656 627.238281 443.414062 629.621094 457.570312 L 664.804688 667.042969 C 666.191406 675.3125 673.355469 681.164062 681.46875 681.164062 C 682.398438 681.164062 683.34375 681.089844 684.289062 680.929688 C 693.507812 679.382812 699.722656 670.761719 698.171875 661.546875 L 677.410156 538.035156 L 1009.671875 538.035156 C 1012.449219 538.035156 1014.078125 539.367188 1014.804688 540.308594 C 1015.53125 541.253906 1016.640625 543.117188 1015.917969 545.796875 L 973.015625 705.257812 C 969.46875 718.441406 957.460938 727.636719 943.804688 727.636719 L 723.183594 727.636719 C 696.277344 727.636719 674.398438 749.4375 674.398438 776.34375 L 674.398438 785.4375 C 679.199219 783.628906 685.6875 782.835938 691.824219 782.835938 C 691.847656 782.835938 691.871094 782.835938 691.894531 782.835938 C 685.78125 782.835938 679.902344 783.730469 674.386719 785.535156 C 651.675781 792.949219 635.222656 814.269531 635.222656 839.417969 C 635.222656 870.703125 660.675781 896.132812 691.953125 896.132812 C 719 896.132812 741.675781 877.089844 747.324219 851.722656 C 748.203125 847.761719 748.6875 843.652344 748.691406 839.4375 C 748.691406 839.457031 748.691406 839.175781 748.691406 839.199219 C 748.691406 843.433594 748.210938 847.636719 747.324219 851.234375 L 823.644531 851.234375 C 822.757812 847.636719 822.277344 843.429688 822.277344 839.191406 C 822.277344 839.175781 822.28125 839.300781 822.28125 839.277344 C 822.285156 843.496094 822.765625 847.675781 823.644531 851.632812 C 829.292969 877.003906 851.96875 896.070312 879.015625 896.070312 C 910.296875 896.070312 935.746094 870.636719 935.746094 839.351562 C 935.746094 808.066406 910.296875 782.628906 879.015625 782.628906 C 855.335938 782.628906 835.011719 797.039062 826.523438 817.6875 C 826.503906 817.730469 826.492188 817.636719 826.476562 817.636719 L 744.496094 817.636719 C 744.476562 817.636719 744.464844 817.734375 744.449219 817.691406 C 737.984375 801.96875 724.621094 789.863281 708.179688 784.933594 C 708.132812 784.921875 708 785 708 784.988281 L 708 776.34375 C 708 768.09375 714.933594 761.234375 723.183594 761.234375 L 943.804688 761.234375 C 972.726562 761.234375 998.179688 741.796875 1005.695312 713.863281 L 1048.59375 554.421875 C 1051.875 542.214844 1049.347656 529.855469 1041.660156 519.824219 C 1033.972656 509.792969 1022.3125 504.433594 1009.671875 504.433594 " fill-opacity="1" fill-rule="nonzero"/></g><g transform="matrix(1, 0, 0, 1, 168, 893)"><g clip-path="url(#2518fb90cd)"><g fill="#5e17eb" fill-opacity="1"><g transform="translate(0.656269, 114.536358)"><g><path d="M 83.8125 0 L 83.703125 -48.890625 L 59.71875 -8.609375 L 51.21875 -8.609375 L 27.359375 -47.84375 L 27.359375 0 L 9.65625 0 L 9.65625 -81.484375 L 25.265625 -81.484375 L 55.765625 -30.84375 L 85.796875 -81.484375 L 101.265625 -81.484375 L 101.5 0 Z M 83.8125 0 "/></g></g></g><g fill="#5e17eb" fill-opacity="1"><g transform="translate(111.809382, 114.536358)"><g><path d="M 9.65625 -81.484375 L 28.515625 -81.484375 L 28.515625 0 L 9.65625 0 Z M 9.65625 -81.484375 "/></g></g></g><g fill="#5e17eb" fill-opacity="1"><g transform="translate(149.985542, 114.536358)"><g><path d="M 84.390625 -81.484375 L 84.390625 0 L 68.90625 0 L 28.28125 -49.46875 L 28.28125 0 L 9.65625 0 L 9.65625 -81.484375 L 25.265625 -81.484375 L 65.765625 -32.015625 L 65.765625 -81.484375 Z M 84.390625 -81.484375 "/></g></g></g><g fill="#5e17eb" fill-opacity="1"><g transform="translate(244.029234, 114.536358)"><g><path d="M 84.390625 -81.484375 L 84.390625 0 L 65.53125 0 L 65.53125 -33.40625 L 28.515625 -33.40625 L 28.515625 0 L 9.65625 0 L 9.65625 -81.484375 L 28.515625 -81.484375 L 28.515625 -49.359375 L 65.53125 -49.359375 L 65.53125 -81.484375 Z M 84.390625 -81.484375 "/></g></g></g><g fill="#5e17eb" fill-opacity="1"><g transform="translate(338.072926, 114.536358)"><g><path d="M 63.328125 -17.453125 L 25.5 -17.453125 L 18.28125 0 L -1.046875 0 L 35.265625 -81.484375 L 53.890625 -81.484375 L 90.328125 0 L 70.546875 0 Z M 57.390625 -31.78125 L 44.46875 -62.96875 L 31.546875 -31.78125 Z M 57.390625 -31.78125 "/></g></g></g><g fill="#5e17eb" fill-opacity="1"><g transform="translate(427.228208, 114.536358)"><g><path d="M 36.4375 1.390625 C 29.988281 1.390625 23.757812 0.519531 17.75 -1.21875 C 11.738281 -2.96875 6.910156 -5.238281 3.265625 -8.03125 L 9.65625 -22.234375 C 13.15625 -19.671875 17.304688 -17.613281 22.109375 -16.0625 C 26.921875 -14.507812 31.734375 -13.734375 36.546875 -13.734375 C 41.898438 -13.734375 45.859375 -14.53125 48.421875 -16.125 C 50.984375 -17.71875 52.265625 -19.832031 52.265625 -22.46875 C 52.265625 -24.40625 51.503906 -26.015625 49.984375 -27.296875 C 48.472656 -28.578125 46.535156 -29.601562 44.171875 -30.375 C 41.804688 -31.15625 38.609375 -32.007812 34.578125 -32.9375 C 28.367188 -34.414062 23.285156 -35.890625 19.328125 -37.359375 C 15.367188 -38.835938 11.972656 -41.207031 9.140625 -44.46875 C 6.304688 -47.726562 4.890625 -52.070312 4.890625 -57.5 C 4.890625 -62.238281 6.171875 -66.523438 8.734375 -70.359375 C 11.296875 -74.203125 15.15625 -77.25 20.3125 -79.5 C 25.46875 -81.75 31.773438 -82.875 39.234375 -82.875 C 44.429688 -82.875 49.507812 -82.253906 54.46875 -81.015625 C 59.4375 -79.773438 63.785156 -77.988281 67.515625 -75.65625 L 61.6875 -61.34375 C 54.164062 -65.613281 46.640625 -67.75 39.109375 -67.75 C 33.835938 -67.75 29.9375 -66.894531 27.40625 -65.1875 C 24.882812 -63.476562 23.625 -61.226562 23.625 -58.4375 C 23.625 -55.644531 25.078125 -53.566406 27.984375 -52.203125 C 30.898438 -50.847656 35.347656 -49.507812 41.328125 -48.1875 C 47.535156 -46.71875 52.617188 -45.242188 56.578125 -43.765625 C 60.535156 -42.296875 63.925781 -39.96875 66.75 -36.78125 C 69.582031 -33.601562 71 -29.296875 71 -23.859375 C 71 -19.203125 69.695312 -14.953125 67.09375 -11.109375 C 64.5 -7.273438 60.601562 -4.234375 55.40625 -1.984375 C 50.207031 0.265625 43.882812 1.390625 36.4375 1.390625 Z M 36.4375 1.390625 "/></g></g></g><g fill="#5e17eb" fill-opacity="1"><g transform="translate(501.485479, 114.536358)"><g/></g></g><g fill="#5e17eb" fill-opacity="1"><g transform="translate(534.424045, 114.536358)"><g><path d="M 48.65625 1.390625 C 40.351562 1.390625 32.84375 -0.410156 26.125 -4.015625 C 19.414062 -7.617188 14.140625 -12.625 10.296875 -19.03125 C 6.460938 -25.4375 4.546875 -32.671875 4.546875 -40.734375 C 4.546875 -48.804688 6.460938 -56.046875 10.296875 -62.453125 C 14.140625 -68.859375 19.414062 -73.863281 26.125 -77.46875 C 32.84375 -81.070312 40.394531 -82.875 48.78125 -82.875 C 55.832031 -82.875 62.210938 -81.632812 67.921875 -79.15625 C 73.628906 -76.675781 78.421875 -73.109375 82.296875 -68.453125 L 70.1875 -57.265625 C 64.675781 -63.628906 57.847656 -66.8125 49.703125 -66.8125 C 44.660156 -66.8125 40.160156 -65.707031 36.203125 -63.5 C 32.242188 -61.289062 29.15625 -58.207031 26.9375 -54.25 C 24.726562 -50.289062 23.625 -45.785156 23.625 -40.734375 C 23.625 -35.691406 24.726562 -31.191406 26.9375 -27.234375 C 29.15625 -23.273438 32.242188 -20.191406 36.203125 -17.984375 C 40.160156 -15.773438 44.660156 -14.671875 49.703125 -14.671875 C 57.847656 -14.671875 64.675781 -17.890625 70.1875 -24.328125 L 82.296875 -13.15625 C 78.421875 -8.414062 73.609375 -4.804688 67.859375 -2.328125 C 62.117188 0.148438 55.71875 1.390625 48.65625 1.390625 Z M 48.65625 1.390625 "/></g></g></g><g fill="#5e17eb" fill-opacity="1"><g transform="translate(619.738415, 114.536358)"><g><path d="M 49.125 1.390625 C 40.664062 1.390625 33.039062 -0.429688 26.25 -4.078125 C 19.457031 -7.722656 14.140625 -12.742188 10.296875 -19.140625 C 6.460938 -25.546875 4.546875 -32.742188 4.546875 -40.734375 C 4.546875 -48.734375 6.460938 -55.929688 10.296875 -62.328125 C 14.140625 -68.734375 19.457031 -73.757812 26.25 -77.40625 C 33.039062 -81.050781 40.664062 -82.875 49.125 -82.875 C 57.582031 -82.875 65.1875 -81.050781 71.9375 -77.40625 C 78.6875 -73.757812 84 -68.734375 87.875 -62.328125 C 91.757812 -55.929688 93.703125 -48.734375 93.703125 -40.734375 C 93.703125 -32.742188 91.757812 -25.546875 87.875 -19.140625 C 84 -12.742188 78.6875 -7.722656 71.9375 -4.078125 C 65.1875 -0.429688 57.582031 1.390625 49.125 1.390625 Z M 49.125 -14.671875 C 53.9375 -14.671875 58.28125 -15.773438 62.15625 -17.984375 C 66.039062 -20.191406 69.085938 -23.273438 71.296875 -27.234375 C 73.503906 -31.191406 74.609375 -35.691406 74.609375 -40.734375 C 74.609375 -45.785156 73.503906 -50.289062 71.296875 -54.25 C 69.085938 -58.207031 66.039062 -61.289062 62.15625 -63.5 C 58.28125 -65.707031 53.9375 -66.8125 49.125 -66.8125 C 44.3125 -66.8125 39.960938 -65.707031 36.078125 -63.5 C 32.203125 -61.289062 29.15625 -58.207031 26.9375 -54.25 C 24.726562 -50.289062 23.625 -45.785156 23.625 -40.734375 C 23.625 -35.691406 24.726562 -31.191406 26.9375 -27.234375 C 29.15625 -23.273438 32.203125 -20.191406 36.078125 -17.984375 C 39.960938 -15.773438 44.3125 -14.671875 49.125 -14.671875 Z M 49.125 -14.671875 "/></g></g></g><g fill="#5e17eb" fill-opacity="1"><g transform="translate(717.972156, 114.536358)"><g><path d="M 83.8125 0 L 83.703125 -48.890625 L 59.71875 -8.609375 L 51.21875 -8.609375 L 27.359375 -47.84375 L 27.359375 0 L 9.65625 0 L 9.65625 -81.484375 L 25.265625 -81.484375 L 55.765625 -30.84375 L 85.796875 -81.484375 L 101.265625 -81.484375 L 101.5 0 Z M 83.8125 0 "/></g></g></g><g fill="#5e17eb" fill-opacity="1"><g transform="translate(829.125314, 114.536358)"><g><path d="M 44.9375 -81.484375 C 52.15625 -81.484375 58.421875 -80.28125 63.734375 -77.875 C 69.046875 -75.46875 73.132812 -72.050781 76 -67.625 C 78.875 -63.207031 80.3125 -57.972656 80.3125 -51.921875 C 80.3125 -45.941406 78.875 -40.71875 76 -36.25 C 73.132812 -31.789062 69.046875 -28.378906 63.734375 -26.015625 C 58.421875 -23.648438 52.15625 -22.46875 44.9375 -22.46875 L 28.515625 -22.46875 L 28.515625 0 L 9.65625 0 L 9.65625 -81.484375 Z M 43.890625 -37.828125 C 49.546875 -37.828125 53.847656 -39.050781 56.796875 -41.5 C 59.753906 -43.945312 61.234375 -47.421875 61.234375 -51.921875 C 61.234375 -56.492188 59.753906 -60.003906 56.796875 -62.453125 C 53.847656 -64.898438 49.546875 -66.125 43.890625 -66.125 L 28.515625 -66.125 L 28.515625 -37.828125 Z M 43.890625 -37.828125 "/></g></g></g><g fill="#5e17eb" fill-opacity="1"><g transform="translate(914.323276, 114.536358)"><g><path d="M 61.578125 0 L 45.859375 -22.703125 L 28.515625 -22.703125 L 28.515625 0 L 9.65625 0 L 9.65625 -81.484375 L 44.9375 -81.484375 C 52.15625 -81.484375 58.421875 -80.28125 63.734375 -77.875 C 69.046875 -75.46875 73.132812 -72.050781 76 -67.625 C 78.875 -63.207031 80.3125 -57.972656 80.3125 -51.921875 C 80.3125 -45.867188 78.859375 -40.648438 75.953125 -36.265625 C 73.046875 -31.878906 68.914062 -28.519531 63.5625 -26.1875 L 81.828125 0 Z M 61.234375 -51.921875 C 61.234375 -56.492188 59.753906 -60.003906 56.796875 -62.453125 C 53.847656 -64.898438 49.546875 -66.125 43.890625 -66.125 L 28.515625 -66.125 L 28.515625 -37.71875 L 43.890625 -37.71875 C 49.546875 -37.71875 53.847656 -38.957031 56.796875 -41.4375 C 59.753906 -43.925781 61.234375 -47.421875 61.234375 -51.921875 Z M 61.234375 -51.921875 "/></g></g></g><g fill="#5e17eb" fill-opacity="1"><g transform="translate(999.87042, 114.536358)"><g><path d="M 63.328125 -17.453125 L 25.5 -17.453125 L 18.28125 0 L -1.046875 0 L 35.265625 -81.484375 L 53.890625 -81.484375 L 90.328125 0 L 70.546875 0 Z M 57.390625 -31.78125 L 44.46875 -62.96875 L 31.546875 -31.78125 Z M 57.390625 -31.78125 "/></g></g></g><g fill="#5e17eb" fill-opacity="1"><g transform="translate(1089.025747, 114.536358)"><g><path d="M 36.4375 1.390625 C 29.988281 1.390625 23.757812 0.519531 17.75 -1.21875 C 11.738281 -2.96875 6.910156 -5.238281 3.265625 -8.03125 L 9.65625 -22.234375 C 13.15625 -19.671875 17.304688 -17.613281 22.109375 -16.0625 C 26.921875 -14.507812 31.734375 -13.734375 36.546875 -13.734375 C 41.898438 -13.734375 45.859375 -14.53125 48.421875 -16.125 C 50.984375 -17.71875 52.265625 -19.832031 52.265625 -22.46875 C 52.265625 -24.40625 51.503906 -26.015625 49.984375 -27.296875 C 48.472656 -28.578125 46.535156 -29.601562 44.171875 -30.375 C 41.804688 -31.15625 38.609375 -32.007812 34.578125 -32.9375 C 28.367188 -34.414062 23.285156 -35.890625 19.328125 -37.359375 C 15.367188 -38.835938 11.972656 -41.207031 9.140625 -44.46875 C 6.304688 -47.726562 4.890625 -52.070312 4.890625 -57.5 C 4.890625 -62.238281 6.171875 -66.523438 8.734375 -70.359375 C 11.296875 -74.203125 15.15625 -77.25 20.3125 -79.5 C 25.46875 -81.75 31.773438 -82.875 39.234375 -82.875 C 44.429688 -82.875 49.507812 -82.253906 54.46875 -81.015625 C 59.4375 -79.773438 63.785156 -77.988281 67.515625 -75.65625 L 61.6875 -61.34375 C 54.164062 -65.613281 46.640625 -67.75 39.109375 -67.75 C 33.835938 -67.75 29.9375 -66.894531 27.40625 -65.1875 C 24.882812 -63.476562 23.625 -61.226562 23.625 -58.4375 C 23.625 -55.644531 25.078125 -53.566406 27.984375 -52.203125 C 30.898438 -50.847656 35.347656 -49.507812 41.328125 -48.1875 C 47.535156 -46.71875 52.617188 -45.242188 56.578125 -43.765625 C 60.535156 -42.296875 63.925781 -39.96875 66.75 -36.78125 C 69.582031 -33.601562 71 -29.296875 71 -23.859375 C 71 -19.203125 69.695312 -14.953125 67.09375 -11.109375 C 64.5 -7.273438 60.601562 -4.234375 55.40625 -1.984375 C 50.207031 0.265625 43.882812 1.390625 36.4375 1.390625 Z M 36.4375 1.390625 "/></g></g></g></g></g></svg>